<?xml version="1.0" encoding="UTF-8"?>
<svg width="560" height="360" viewBox="0 0 560 360" fill="none" xmlns="http://www.w3.org/2000/svg">
  <defs>
    <linearGradient id="grad1" x1="0" y1="0" x2="1" y2="1">
      <stop offset="0%" stop-color="#60A5FA"/>
      <stop offset="100%" stop-color="#C084FC"/>
    </linearGradient>
    <filter id="shadow" x="-20%" y="-20%" width="140%" height="140%">
      <feDropShadow dx="0" dy="12" stdDeviation="16" flood-color="#000" flood-opacity="0.2"/>
    </filter>
  </defs>
  <rect x="0" y="0" width="560" height="360" rx="24" fill="url(#grad1)" opacity="0.15"/>
  <!-- Wallet card -->
  <rect x="60" y="80" width="200" height="140" rx="16" fill="#0B0F1A" filter="url(#shadow)"/>
  <circle cx="100" cy="120" r="18" fill="#10B981"/>
  <rect x="130" y="108" width="100" height="12" rx="6" fill="#1F2937"/>
  <rect x="130" y="128" width="72" height="12" rx="6" fill="#1F2937"/>

  <!-- Arrow to vault -->
  <path d="M280 150 H380" stroke="#6EE7B7" stroke-width="6" stroke-linecap="round"/>
  <path d="M365 140 L380 150 L365 160" fill="none" stroke="#6EE7B7" stroke-width="6" stroke-linecap="round" stroke-linejoin="round"/>

  <!-- Vault -->
  <rect x="380" y="90" width="120" height="120" rx="20" fill="#0B0F1A" filter="url(#shadow)"/>
  <circle cx="440" cy="150" r="28" fill="#111827" stroke="#FFFFFF" stroke-opacity="0.15"/>
  <path d="M430 150 a10 10 0 1 0 20 0 a10 10 0 1 0 -20 0" fill="#60A5FA"/>
  <rect x="435" y="118" width="10" height="16" rx="3" fill="#374151"/>
</svg>


